<svg xmlns="http://www.w3.org/2000/svg" width="100" height="32" viewBox="0 0 100 32" fill="none">
  <path d="M37.8486 10.0571H46.8142V12.5647H41.4903V14.6017H46.0373V16.9613H41.4903V21.7344H37.8486V10.0571Z" fill="#00E6B6"/>
  <path d="M47.5843 17.5329C47.5843 16.2422 48.0235 15.18 48.895 14.3397C49.7734 13.506 50.949 13.0825 52.4421 13.0825C54.1447 13.0825 55.4284 13.5733 56.2999 14.5548C57.0026 15.3481 57.3472 16.3229 57.3472 17.4792C57.3472 18.7834 56.9148 19.8455 56.0432 20.6792C55.1784 21.5128 53.9758 21.9229 52.4421 21.9229C51.0773 21.9229 49.9693 21.58 49.1247 20.8876C48.091 20.0338 47.5708 18.9111 47.5708 17.5262L47.5843 17.5329ZM50.8476 17.5262C50.8476 18.2792 51.003 18.8371 51.307 19.2002C51.6111 19.5632 52.0029 19.7447 52.4624 19.7447C52.9218 19.7447 53.3204 19.5699 53.6177 19.2136C53.915 18.8573 54.0704 18.2859 54.0704 17.4993C54.0704 16.7666 53.915 16.222 53.6109 15.8657C53.3069 15.5094 52.9285 15.3279 52.4826 15.3279C52.0097 15.3279 51.6178 15.5094 51.307 15.8724C50.9962 16.2355 50.8408 16.7867 50.8408 17.5329L50.8476 17.5262Z" fill="#00E6B6"/>
  <path d="M57.6178 13.2776H61.4824L62.8337 15.6373L64.4079 13.2776H68.0022L65.1038 17.3045L68.2117 21.7347H64.4079L62.8337 19.012L60.9892 21.7347H57.4624L60.55 17.3045L57.6246 13.2776H57.6178Z" fill="#00E6B6"/>
  <path d="M69.5625 10.0571H73.9879C74.6838 10.0571 75.2851 10.0907 75.7919 10.158C76.2986 10.2252 76.7648 10.4067 77.1972 10.6958C77.6296 10.9849 77.9539 11.3815 78.1768 11.8723C78.3998 12.3697 78.5079 12.8874 78.5079 13.4319C78.5079 14.5075 78.1633 15.3748 77.4607 16.0269C76.7648 16.679 75.65 17.0017 74.1095 17.0017H71.1097V21.7344H69.5558V10.0571H69.5625ZM71.1165 15.6168H74.1366C75.981 15.6168 76.9066 14.9042 76.9066 13.479C76.9066 13.0151 76.785 12.5983 76.5486 12.242C76.3121 11.8857 76.0148 11.6639 75.6635 11.5697C75.3122 11.4823 74.7919 11.4353 74.1095 11.4353H71.1232V15.6101L71.1165 15.6168Z" fill="#00E6B6"/>
  <path d="M83.7848 13.0958C84.9334 13.0958 85.886 13.4656 86.636 14.2118C87.3927 14.958 87.7711 16.0135 87.7711 17.3849C87.7711 19.0454 87.3657 20.2219 86.5482 20.9076C85.7307 21.5933 84.8118 21.9362 83.7848 21.9362C82.7579 21.9362 81.7782 21.5799 80.9945 20.874C80.204 20.1681 79.8121 19.0454 79.8121 17.5126C79.8121 15.9799 80.1905 14.9177 80.954 14.1849C81.7174 13.4521 82.6633 13.0891 83.7848 13.0891V13.0958ZM83.7848 20.7597C84.6091 20.7597 85.2307 20.4572 85.6563 19.8521C86.082 19.2471 86.2982 18.4538 86.2982 17.4656C86.2982 16.4101 86.055 15.6101 85.5753 15.079C85.0956 14.5479 84.4943 14.2723 83.7848 14.2723C83.0754 14.2723 82.4538 14.5412 81.9809 15.0858C81.5147 15.6303 81.2783 16.4437 81.2783 17.5194C81.2783 18.595 81.5147 19.4017 81.9944 19.9463C82.4741 20.4908 83.0687 20.7597 83.7848 20.7597Z" fill="#00E6B6"/>
  <path d="M92.8991 13.0958C94.0477 13.0958 95.0003 13.4656 95.7503 14.2118C96.507 14.958 96.8853 16.0135 96.8853 17.3849C96.8853 19.0454 96.4799 20.2219 95.6624 20.9076C94.8449 21.5933 93.9261 21.9362 92.8991 21.9362C91.8721 21.9362 90.8925 21.5799 90.1087 20.874C89.3183 20.1681 88.9264 19.0454 88.9264 17.5126C88.9264 15.9799 89.3047 14.9177 90.0682 14.1849C90.8317 13.4521 91.7776 13.0891 92.8991 13.0891V13.0958ZM92.8991 20.7597C93.7234 20.7597 94.345 20.4572 94.7706 19.8521C95.1962 19.2471 95.4124 18.4538 95.4124 17.4656C95.4124 16.4101 95.1692 15.6101 94.6895 15.079C94.2098 14.5479 93.6085 14.2723 92.8991 14.2723C92.1897 14.2723 91.5681 14.5412 91.0952 15.0858C90.629 15.6303 90.3925 16.4437 90.3925 17.5194C90.3925 18.595 90.629 19.4017 91.1087 19.9463C91.5884 20.4908 92.1829 20.7597 92.8991 20.7597Z" fill="#00E6B6"/>
  <path d="M99.9999 21.7344H98.5608V10.0571H99.9999V21.7344Z" fill="#00E6B6"/>
  <path d="M12.918 24.6588C13.1207 24.8672 13.2964 24.4503 13.9045 24.4503C14.5125 24.4503 14.722 24.921 14.9517 24.6319C15.1814 24.3427 14.5733 23.8855 13.9247 23.8855C13.2761 23.8855 12.6275 24.3495 12.918 24.6588Z" fill="#00E6B6"/>
  <path d="M14.3573 21.2303V16.9345C14.3573 16.7194 14.1816 16.5378 13.9587 16.5378C13.7357 16.5378 13.5601 16.7126 13.5601 16.9345V21.2303C13.5601 21.4454 13.7357 21.6269 13.9587 21.6269C14.1816 21.6269 14.3573 21.4521 14.3573 21.2303Z" fill="#00E6B6"/>
  <path d="M22.2892 12.9345C22.4852 12.8807 22.5325 12.6723 22.519 12.4505C22.5054 12.1076 22.2284 11.8387 21.8839 11.8253C20.2691 11.7581 15.4654 11.9866 15.8775 17.2572C15.8775 17.2572 16.5126 14.5749 18.5733 13.5463C20.6407 12.5177 21.8366 13.0555 22.2825 12.9413L22.2892 12.9345Z" fill="#00E6B6"/>
  <path d="M17.1947 17.3046C17.1947 17.3046 18.769 17.419 19.4446 16.6255C20.1202 15.8321 19.9581 15.1798 20.1945 14.8503C20.1945 14.8503 17.8704 14.8302 17.188 17.3046H17.1947Z" fill="#00E6B6"/>
  <path d="M27.8292 18.2521C27.8292 18.2521 25.4848 15.4151 23.4647 11.9126C23.4647 11.9126 23.1133 12.9613 24.066 14.5748C25.0186 16.1882 25.8969 17.3445 27.836 18.2521H27.8292Z" fill="#00E6B6"/>
  <path d="M19.6948 7.51598L21.1407 8.69245C21.1407 8.69245 21.3366 7.44875 23.4311 3.24707C23.4311 3.24707 21.0866 5.29749 19.7016 7.5227L19.6948 7.51598Z" fill="#00E6B6"/>
  <path d="M23.9308 1.70756C23.9308 1.70756 25.2685 5.86219 23.5051 10.2521L24.3024 10.9042C24.3024 10.9042 26.6941 6.11765 24.5389 0C24.5389 0 21.485 1.75462 18.4109 5.72101L19.1406 6.51429C19.1406 6.51429 20.6675 4.0605 23.9308 1.70084V1.70756Z" fill="#00E6B6"/>
  <path d="M9.38428 9.89564C9.38428 9.89564 12.2017 12.2284 13.9853 14.6351C13.9853 14.6351 15.4379 11.7377 18.4647 10.057L18.4175 7.93262C18.4175 7.93262 16.6135 9.28388 13.938 12.6721C13.938 12.6721 11.4517 9.66035 9.4113 7.95279L9.39103 9.88892L9.38428 9.89564Z" fill="#00E6B6"/>
  <path d="M5.93893 11.8252C5.59436 11.8387 5.31735 12.1143 5.30384 12.4504C5.29708 12.6723 5.34437 12.8874 5.53355 12.9345C5.97947 13.0488 7.17533 12.5109 9.24276 13.5395C11.3102 14.5681 11.9385 17.2504 11.9385 17.2504C12.3507 11.9799 7.54693 11.7446 5.93217 11.8185L5.93893 11.8252Z" fill="#00E6B6"/>
  <path d="M7.62785 14.8503C7.86432 15.1798 7.69541 15.8321 8.3778 16.6255C9.06019 17.419 10.6276 17.3046 10.6276 17.3046C9.94526 14.8302 7.62109 14.8503 7.62109 14.8503H7.62785Z" fill="#00E6B6"/>
  <path d="M3.77002 14.5748C4.72265 12.9613 4.37133 11.9126 4.37133 11.9126C2.34444 15.4151 0 18.2521 0 18.2521C1.93906 17.3445 2.81738 16.1882 3.77002 14.5748Z" fill="#00E6B6"/>
  <path d="M8.13475 7.51586C6.74295 5.29065 4.40527 3.24023 4.40527 3.24023C6.49973 7.44192 6.69566 8.68561 6.69566 8.68561L8.14151 7.50914L8.13475 7.51586Z" fill="#00E6B6"/>
  <path d="M4.31729 10.2521C2.55389 5.86219 3.89164 1.70756 3.89164 1.70756C7.15493 4.06723 8.68186 6.52101 8.68186 6.52101L9.41154 5.72773C6.33742 1.75462 3.28357 0 3.28357 0C1.12156 6.11765 3.52004 10.9042 3.52004 10.9042L4.31729 10.2521Z" fill="#00E6B6"/>
  <path d="M27.3832 21.0421C27.3832 21.0421 25.9981 15.7648 20.2688 17.748C17.8298 18.595 16.3907 20.585 15.8772 22.2051C15.1948 24.3833 16.1069 26.0438 13.9111 26.2858C11.7153 26.0438 12.6274 24.3833 11.945 22.2051C11.4383 20.5782 9.99921 18.5883 7.55343 17.748C1.83084 15.7648 0.445801 21.0421 0.445801 21.0421C1.89841 19.8051 3.54694 19.9194 3.54694 19.9194C2.35108 20.3631 1.83084 21.5799 1.83084 21.5799C2.24973 21.5866 2.64835 21.6068 3.02671 21.6337C2.15514 23.7782 4.72254 25.627 4.72254 25.627C4.72254 25.627 3.9253 24.0808 4.58066 22.5816C4.58066 22.5816 4.95901 25.8152 8.58039 27.4555C8.58039 27.4555 7.87097 26.5211 8.15474 24.6925C8.15474 24.6925 8.72227 26.6623 10.4654 28.0203C12.2085 29.3782 13.8098 32.0001 13.8098 32.0001C13.8098 32.0001 15.3164 29.7009 17.0122 28.2488C18.7081 26.7967 19.4107 24.7799 19.4107 24.7799C19.4107 24.7799 19.931 26.4673 19.0324 27.3547C19.0324 27.3547 22.6605 26.2791 23.0321 22.5749C23.0321 22.5749 23.5996 24.2623 22.9375 25.6203C22.9375 25.6203 25.7144 23.59 24.7617 21.627C25.1468 21.6001 25.5522 21.5799 25.9846 21.5732C25.9846 21.5732 25.4711 20.3564 24.2685 19.9127C24.2685 19.9127 25.9103 19.7984 27.3697 21.0354L27.3832 21.0421Z" fill="#00E6B6"/>
  <path d="M13.972 9.14333C14.4179 9.14333 14.7692 9.0223 15.0259 8.78023C15.2827 8.53817 15.4043 8.22213 15.4043 7.84558C15.4043 7.50938 15.303 7.22024 15.1003 6.99162C14.8435 6.70249 14.4719 6.56128 13.972 6.56128C13.5328 6.56128 13.1882 6.68231 12.9315 6.93111C12.6748 7.17317 12.5464 7.48921 12.5464 7.86575C12.5464 8.2692 12.695 8.59868 12.9991 8.84747C13.249 9.0492 13.5666 9.15006 13.972 9.15006V9.14333ZM13.6409 7.36817C13.7287 7.26059 13.8436 7.20679 13.9855 7.20679C14.1138 7.20679 14.2287 7.26059 14.3165 7.36145C14.4044 7.46903 14.4517 7.62369 14.4517 7.83886C14.4517 8.06748 14.4044 8.23558 14.3165 8.34317C14.2287 8.45075 14.1138 8.49782 13.9787 8.49782C13.8436 8.49782 13.7287 8.44403 13.6409 8.33644C13.5531 8.22886 13.5058 8.06748 13.5058 7.84558C13.5058 7.62369 13.5531 7.46231 13.6409 7.36145V7.36817Z" fill="#00E6B6"/>
</svg>